{
    "asset" : {
        "generator" : "Khronos glTF Blender I/O v3.3.32",
        "version" : "2.0"
    },
    "scene" : 0,
    "scenes" : [
        {
            "name" : "Scene",
            "nodes" : [
                0
            ]
        }
    ],
    "nodes" : [
        {
            "mesh" : 0,
            "name" : "Plane.283",
            "rotation" : [
                0.5000002384185791,
                -0.49999985098838806,
                0.49999988079071045,
                0.5000001192092896
            ],
            "translation" : [
                25.649999618530273,
                -1.5,
                31.999998092651367
            ]
        }
    ],
    "materials" : [
        {
            "doubleSided" : true,
            "name" : "trim",
            "normalTexture" : {
                "index" : 0,
                "scale" : 2
            },
            "pbrMetallicRoughness" : {
                "baseColorTexture" : {
                    "index" : 1
                },
                "metallicRoughnessTexture" : {
                    "index" : 2
                }
            }
        }
    ],
    "meshes" : [
        {
            "name" : "Plane.071",
            "primitives" : [
                {
                    "attributes" : {
                        "POSITION" : 0,
                        "NORMAL" : 1,
                        "TEXCOORD_0" : 2
                    },
                    "indices" : 3,
                    "material" : 0
                }
            ]
        }
    ],
    "textures" : [
        {
            "sampler" : 0,
            "source" : 0
        },
        {
            "sampler" : 0,
            "source" : 1
        },
        {
            "sampler" : 0,
            "source" : 2
        }
    ],
    "images" : [
        {
            "mimeType" : "image/png",
            "name" : "trimsheet_3_low_DefaultMaterial_Normal",
            "uri" : "textures/trimsheet_3_low_DefaultMaterial_Normal.png"
        },
        {
            "mimeType" : "image/png",
            "name" : "trimsheet_3_low_DefaultMaterial_BaseColor",
            "uri" : "textures/trimsheet_3_low_DefaultMaterial_BaseColor.png"
        },
        {
            "mimeType" : "image/png",
            "name" : "trimsheet_3_low_DefaultMaterial_Metallic-trimsheet_3_low_DefaultMaterial_Roughness",
            "uri" : "textures/trimsheet_3_low_DefaultMaterial_Metallic-trimsheet_3_low_DefaultMaterial_Roughness.png"
        }
    ],
    "accessors" : [
        {
            "bufferView" : 0,
            "componentType" : 5126,
            "count" : 3263,
            "max" : [
                2.0926527976989746,
                0.6227067112922668,
                0
            ],
            "min" : [
                -2.092648983001709,
                -0.6227067112922668,
                -3
            ],
            "type" : "VEC3"
        },
        {
            "bufferView" : 1,
            "componentType" : 5126,
            "count" : 3263,
            "type" : "VEC3"
        },
        {
            "bufferView" : 2,
            "componentType" : 5126,
            "count" : 3263,
            "type" : "VEC2"
        },
        {
            "bufferView" : 3,
            "componentType" : 5123,
            "count" : 10248,
            "type" : "SCALAR"
        }
    ],
    "bufferViews" : [
        {
            "buffer" : 0,
            "byteLength" : 39156,
            "byteOffset" : 0,
            "target" : 34962
        },
        {
            "buffer" : 0,
            "byteLength" : 39156,
            "byteOffset" : 39156,
            "target" : 34962
        },
        {
            "buffer" : 0,
            "byteLength" : 26104,
            "byteOffset" : 78312,
            "target" : 34962
        },
        {
            "buffer" : 0,
            "byteLength" : 20496,
            "byteOffset" : 104416,
            "target" : 34963
        }
    ],
    "samplers" : [
        {
            "magFilter" : 9729,
            "minFilter" : 9987
        }
    ],
    "buffers" : [
        {
            "byteLength" : 124912,
            "uri" : "double_door_frame.bin"
        }
    ]
}
