<?xml version="1.0" encoding="iso-8859-1"?>
<!-- Generator: Adobe Illustrator 19.0.0, SVG Export Plug-In . SVG Version: 6.00 Build 0)  -->
<svg version="1.1" id="Layer_1" xmlns="http://www.w3.org/2000/svg" xmlns:xlink="http://www.w3.org/1999/xlink" x="0px" y="0px"
	 viewBox="0 0 426.024 426.024" style="enable-background:new 0 0 426.024 426.024;" xml:space="preserve">
<g>
	<g id="XMLID_13_">
		<g>
			<path style="fill:#FCD09F;" d="M371.105,227.42L231.784,366.741c-11.13,11.13-23.794,20.626-37.604,28.185
				c-6.909,3.783-13.52,8.047-19.806,12.749c-6.286,4.716-12.233,9.871-17.798,15.436l-2.913,2.913L20.224,292.587
				c0,0,12.085-77.28,16.023-94.936c3.946-17.649,12.806-34.203,26.12-47.518l65.867-65.867c8.408-8.408,22.033-8.415,30.441-0.007
				c5.982,5.982,9.157,13.711,9.532,21.538c0.021,0.516,0.035,1.04,0.035,1.563c-0.007,8.365-3.189,16.723-9.574,23.108
				L280.85,8.287C286.379,2.758,293.62,0,300.861,0c7.248,0.007,14.482,2.772,20.011,8.301c4.702,4.702,7.396,10.649,8.089,16.787
				c0.941,8.153-1.676,16.638-7.842,22.96l16.985-16.985c0.085-0.085,0.17-0.17,0.262-0.247c5.494-5.367,12.622-8.04,19.75-8.04
				c7.241,0,14.489,2.765,20.011,8.287c4.702,4.702,7.396,10.649,8.089,16.787c0.955,8.266-1.747,16.879-8.096,23.229
				l-20.612,20.612c5.523-5.523,12.763-8.28,20.004-8.28s14.482,2.758,20.004,8.28c4.702,4.702,7.403,10.656,8.096,16.794
				c0.955,8.266-1.747,16.879-8.089,23.221l-61.455,61.455c9.525-9.525,25.081-10.034,34.754-0.657
				c4.978,4.822,7.453,11.201,7.46,17.6C378.275,216.361,375.885,222.64,371.105,227.42z"/>
		</g>
	</g>
	<path style="fill:#E2B991;" d="M158.669,130.468l-54.475,54.475c-2.093-2.093-3.132-4.829-3.132-7.573
		c0.007-2.736,1.047-5.473,3.14-7.566l64.007-64.007c0.021,0.516,0.035,1.04,0.035,1.563
		C168.236,115.725,165.054,124.083,158.669,130.468z"/>
	<path style="fill:#E2B991;" d="M338.366,30.816L217.048,152.134c-2.093-2.093-3.133-4.83-3.133-7.573
		c0.007-2.736,1.046-5.473,3.14-7.566L328.961,25.088c0.941,8.153-1.676,16.638-7.842,22.96l16.985-16.985
		C338.189,30.978,338.274,30.894,338.366,30.816z"/>
	<path style="fill:#E2B991;" d="M378.119,71.078L248.627,200.571c-2.093-2.093-3.133-4.83-3.132-7.573
		c0.007-2.737,1.046-5.473,3.139-7.566L386.216,47.85C387.17,56.116,384.469,64.729,378.119,71.078z"/>
	<path style="fill:#E2B991;" d="M397.522,131.706L278.248,250.98c-2.093-2.093-3.132-4.829-3.133-7.573
		c0.007-2.737,1.047-5.473,3.14-7.566l127.357-127.357C406.566,116.75,403.865,125.363,397.522,131.706z"/>
</g>
<g>
</g>
<g>
</g>
<g>
</g>
<g>
</g>
<g>
</g>
<g>
</g>
<g>
</g>
<g>
</g>
<g>
</g>
<g>
</g>
<g>
</g>
<g>
</g>
<g>
</g>
<g>
</g>
<g>
</g>
</svg>
